# xmcd
#
# Track frame offsets:
#	150
#	23455
#	44065
#	63018
#	79536
#	101190
#	117307
#	136652
#	155605
#	190525
#
# Disc length: 2650 seconds
#
# Revision: 1
# Processed by: cddbd v1.4PL0 Copyright (c) Steve Scherf et al.
# Submitted via: EasyCDDAExtractor 5.0.6
#
DISCID=750a580a
DTITLE=SUBURblues
DYEAR=2002
DGENRE=Blues
TTITLE0=Sentimento Blues
TTITLE1=One Way Out
TTITLE2=Delírio Blues
TTITLE3=Pedras que rolam
TTITLE4=Long Gray Mare
TTITLE5=Blues Dog Shuffle
TTITLE6=Energia Azul
TTITLE7=Litlle Red Rooster
TTITLE8=Salto Mortal
TTITLE9=Blues para Pixinguinha
EXTD=
EXTT0=
EXTT1=
EXTT2=
EXTT3=
EXTT4=
EXTT5=
EXTT6=
EXTT7=
EXTT8=
EXTT9=
PLAYORDER=
